Coordinates
version=1
nRows=11
nColumns=40
inDegrees=yes

Units are S.I. units (second, meters, Newtons, ...)
Angles are in degrees.

endheader
time	pelvis_tilt	pelvis_list	pelvis_rotation	pelvis_tx	pelvis_ty	pelvis_tz	hip_flexion_r	hip_adduction_r	hip_rotation_r	knee_angle_r	knee_angle_r_beta	ankle_angle_r	subtalar_angle_r	mtp_angle_r	hip_flexion_l	hip_adduction_l	hip_rotation_l	knee_angle_l	knee_angle_l_beta	ankle_angle_l	subtalar_angle_l	mtp_angle_l	lumbar_extension	lumbar_bending	lumbar_rotation	arm_flex_r	arm_add_r	arm_rot_r	elbow_flex_r	pro_sup_r	wrist_flex_r	wrist_dev_r	arm_flex_l	arm_add_l	arm_rot_l	elbow_flex_l	pro_sup_l	wrist_flex_l	wrist_dev_l
     28.43250000	     -4.51958303	     -3.70978194	      5.10530727	      0.85979110	      0.92586609	      0.47618312	      1.15470628	     -2.25208967	    -16.67959388	     28.82102414	     28.82102414	     14.85999832	      2.84879557	    -10.60822041	     24.79616289	     -2.53728173	     -2.41446459	     22.24828551	     22.24828551	      6.11857725	    -12.82682277	      4.96142827	     -5.78311906	      4.87744534	      5.67006041	     26.33709736	    -16.94844956	    -13.42328065	     71.43273908	     45.08318095	      0.00000000	      0.00000000	     -5.91713921	     -6.23637923	      3.14078321	     26.55596217	     45.38880254	      0.00000000	      0.00000000
     28.44428571	     -4.49816097	     -3.56572237	      4.78277378	      0.86026008	      0.92678357	      0.47384011	      2.57403237	     -3.11404399	    -15.88173409	     32.21698855	     32.21698855	     13.37758599	      1.42357058	    -12.10115177	     24.04874344	     -2.41949787	     -2.95174950	     22.06136371	     22.06136371	      6.63007614	    -12.53504822	      4.63571815	     -5.82244809	      4.73880048	      5.70868256	     24.91655106	    -16.79547236	    -13.22887542	     69.32110092	     45.14519282	      0.00000000	      0.00000000	     -4.80916436	     -6.33671433	      2.82377625	     27.00947327	     45.46276241	      0.00000000	      0.00000000
     28.45607143	     -4.38121863	     -3.44659420	      4.52008681	      0.86063800	      0.92759367	      0.47168822	      4.06250561	     -3.90034183	    -15.03897315	     35.82715468	     35.82715468	     11.63708753	     -0.18616529	    -13.32592416	     23.26537207	     -2.33406587	     -3.47110318	     21.95227808	     21.95227808	      7.06864242	    -12.26022605	      4.30078367	     -5.96465738	      4.61204774	      5.69870652	     23.47653980	    -16.55775290	    -12.99799128	     67.23462128	     45.20386709	      0.00000000	      0.00000000	     -3.65670572	     -6.48410455	      2.53391851	     27.52880698	     45.53052280	      0.00000000	      0.00000000
     28.46785714	     -4.29061844	     -3.50809070	      4.20818231	      0.86095407	      0.92817567	      0.46977210	      5.51477930	     -4.21766341	    -13.79075234	     38.82718500	     38.82718500	      7.69448195	     -3.89121342	    -19.44606478	     22.56358087	     -2.45280712	     -3.90315917	     21.91201167	     21.91201167	      7.42238742	    -11.95131607	      3.22664367	     -5.94454218	      4.65705833	      4.66921673	     23.92789871	    -15.61531741	    -11.85008156	     60.93684178	     45.39334277	      0.00000000	      0.00000000	     -3.14501472	     -6.44565516	     -0.08113960	     28.47934444	     45.94565161	      0.00000000	      0.00000000
     28.47964286	     -4.24604049	     -3.42412524	      3.89998061	      0.86102203	      0.92848959	      0.46792299	      7.43281868	     -4.81360596	    -12.72672020	     42.74143099	     42.74143099	      5.74707943	     -5.92240383	    -19.16876666	     21.92091167	     -2.38602398	     -4.28037415	     21.87258933	     21.87258933	      7.86358756	    -11.77137951	      2.88954693	     -6.06249712	      4.55813921	      4.85829098	     22.20649882	    -15.56991943	    -11.57162802	     59.12277181	     45.43938520	      0.00000000	      0.00000000	     -1.82971555	     -6.66180620	     -0.48568932	     29.20364436	     46.02372351	      0.00000000	      0.00000000
     28.49142857	     -4.10080036	     -3.35499526	      3.60507433	      0.86105872	      0.92870039	      0.46621395	      9.32314307	     -5.25447951	    -11.60007427	     46.61257431	     46.61257431	      3.71117156	     -8.16791191	    -18.41493147	     21.25140768	     -2.33919044	     -4.64019938	     21.98187845	     21.98187845	      8.35724776	    -11.68962856	      2.44131693	     -6.24268183	      4.49838695	      4.93935583	     20.75465968	    -15.39762376	    -11.24719539	     56.65620467	     45.50732735	      0.00000000	      0.00000000	     -0.51303055	     -6.92544247	     -0.89175674	     29.94508645	     46.09784143	      0.00000000	      0.00000000
     28.50321429	     -3.91895272	     -3.14202545	      3.32446254	      0.86094987	      0.92883147	      0.46445636	     11.25120674	     -5.87848415	    -10.63820950	     50.46479329	     50.46479329	      1.66540047	     -9.94591861	    -17.61183954	     20.53026068	     -2.12086137	     -4.95802075	     22.05822011	     22.05822011	      8.83239024	    -11.67285114	      2.11857936	     -6.54217165	      4.29081170	      4.81968624	     19.20690910	    -15.02911746	    -10.94599577	     54.84550617	     45.55130613	      0.00000000	      0.00000000	      0.78570494	     -7.29119767	     -1.10521540	     30.59929814	     46.14588915	      0.00000000	      0.00000000
     28.51500000	     -3.82725325	     -3.09386908	      3.03602444	      0.86075054	      0.92885959	      0.46295726	     13.29586923	     -6.08989925	     -9.53939578	     54.04880537	     54.04880537	     -0.30244993	    -12.02296258	    -16.07070522	     19.94683271	     -2.06902464	     -5.18216460	     22.16542979	     22.16542979	      9.29206062	    -11.72591695	      1.78202644	     -6.66232597	      4.23990836	      4.94176508	     17.64201330	    -14.88241668	    -10.59933785	     52.34908911	     45.61812940	      0.00000000	      0.00000000	      2.16639208	     -7.57821598	     -1.33152409	     31.39217197	     46.19484125	      0.00000000	      0.00000000
     28.52678571	     -3.63760460	     -3.15435684	      2.83058144	      0.86047111	      0.92905982	      0.46151232	     15.33383113	     -6.14828225	     -8.66786470	     57.71444862	     57.71444862	     -0.34606898	    -12.54110838	     -9.62563204	     19.31637887	     -2.14673612	     -5.37274401	     22.32557888	     22.32557888	      9.63855650	    -11.66464188	      1.11278243	     -6.77063658	      4.31501460	      3.93986249	     18.39030812	    -14.00465467	     -9.36487089	     45.13618646	     45.82359853	      0.00000000	      0.00000000	      2.98134547	     -8.04235597	     -2.16451664	     32.44577909	     46.27969592	      0.00000000	      0.00000000
     28.53857143	     -3.50885800	     -3.11870150	      2.60713283	      0.86015470	      0.92926950	      0.46009274	     17.22596846	     -6.25695209	     -7.90400550	     60.65396374	     60.65396374	     -1.84798465	    -14.03974443	     -8.26572949	     18.68206862	     -2.08078026	     -5.50190571	     22.36681188	     22.36681188	     10.05132280	    -11.76244194	      0.96672472	     -6.96443777	      4.30645993	      4.16001761	     16.48837814	    -13.92750090	     -9.01316492	     43.35527066	     45.85989442	      0.00000000	      0.00000000	      4.49379675	     -8.32033043	     -2.42856466	     33.39663965	     46.33031827	      0.00000000	      0.00000000
     28.55035714	     -3.35196478	     -2.98942675	      2.37303832	      0.85979345	      0.92955196	      0.45866261	     19.03946799	     -6.44596910	     -7.22134245	     63.29337657	     63.29337657	     -2.95124128	    -15.15918517	     -7.16004276	     17.97432625	     -1.92309419	     -5.73053195	     22.33693803	     22.33693803	     10.48179315	    -11.73415923	      0.81269864	     -7.17628820	      4.21997655	      4.11574411	     14.74119737	    -13.64817389	     -8.67949586	     41.65154954	     45.89561212	      0.00000000	      0.00000000	      5.92735158	     -8.71836312	     -2.57757027	     34.10368278	     46.36693121	      0.00000000	      0.00000000
